# MagicaVoxel @ Ephtracy

# group
o 

# material
mtllib chr_knight.mtl
usemtl palette

# normals
vn -1 0 0
vn 1 0 0
vn 0 0 1
vn 0 0 -1
vn 0 -1 0
vn 0 1 0

# texcoords
vt 0.0332031 0.5
vt 0.0683594 0.5
vt 0.107422 0.5
vt 0.353516 0.5
vt 0.357422 0.5
vt 0.603516 0.5
vt 0.611328 0.5
vt 0.623047 0.5
vt 0.681641 0.5
vt 0.767578 0.5
vt 0.837891 0.5
vt 0.958984 0.5

# verts
v -0.5 0.3 0
v -0.5 0.3 -0.1
v -0.5 0.4 0
v -0.5 0.4 -0.1
v -0.4 0.4 0
v -0.4 0.4 -0.1
v -0.4 0.5 0
v -0.4 0.5 -0.1
v -0.3 0.3 0.2
v -0.3 0.3 -0.3
v -0.3 0.4 0.2
v -0.3 0.4 0
v -0.3 0.4 -0.1
v -0.3 0.4 -0.2
v -0.3 0.4 -0.3
v -0.3 0.5 0.1
v -0.3 0.5 0
v -0.3 0.5 -0.1
v -0.3 0.6 0
v -0.3 0.6 -0.1
v -0.3 0.6 -0.2
v -0.3 0.7 0.2
v -0.3 0.7 0.1
v -0.3 0.7 0
v -0.3 0.7 -0.1
v -0.3 0.8 0.1
v -0.3 0.8 0
v -0.3 1.1 0.2
v -0.3 1.1 0.1
v -0.3 1.1 -0.2
v -0.3 1.1 -0.3
v -0.3 1.2 0.1
v -0.3 1.2 -0.2
v -0.2 0 0
v -0.2 0 -0.1
v -0.2 0.2 0
v -0.2 0.2 -0.1
v -0.2 0.3 0
v -0.2 0.3 -0.1
v -0.2 0.4 0.1
v -0.2 0.4 -0.1
v -0.2 0.4 -0.2
v -0.2 0.4 -0.3
v -0.2 0.4 -0.4
v -0.2 0.5 0.1
v -0.2 0.5 0
v -0.2 0.5 -0.1
v -0.2 0.6 0.2
v -0.2 0.6 0.1
v -0.2 0.6 -0.1
v -0.2 0.6 -0.2
v -0.2 0.7 0.2
v -0.2 0.7 0.1
v -0.2 0.7 0
v -0.2 0.8 0.1
v -0.2 0.8 0
v -0.2 1.1 0.2
v -0.2 1.1 0.1
v -0.2 1.1 -0.2
v -0.2 1.1 -0.3
v -0.2 1.1 -0.4
v -0.2 1.2 0.2
v -0.2 1.2 0.1
v -0.2 1.2 0
v -0.2 1.2 -0.1
v -0.2 1.2 -0.2
v -0.2 1.2 -0.3
v -0.2 1.3 0
v -0.2 1.3 -0.1
v -0.1 0.5 -0.4
v -0.1 0.5 -0.5
v -0.1 0.9 0.2
v -0.1 0.9 0.1
v -0.1 0.9 -0.4
v -0.1 0.9 -0.5
v -0.1 1 0.2
v -0.1 1 0.1
v -0.1 1.2 0.1
v -0.1 1.2 0
v -0.1 1.2 -0.1
v -0.1 1.2 -0.2
v -0.1 1.3 0.1
v -0.1 1.3 0
v -0.1 1.3 -0.1
v -0.1 1.3 -0.2
v 0.1 0 0
v 0.1 0 -0.1
v 0.1 0.2 0
v 0.1 0.2 -0.1
v 0.1 0.3 0
v 0.1 0.3 -0.1
v 0.1 0.6 0.2
v 0.1 0.6 0.1
v 0.1 0.7 0.2
v 0.1 0.7 0.1
v 0.2 0.7 0.2
v 0.2 0.7 0.1
v 0.2 0.8 0.1
v 0.2 0.9 0.1
v 0.2 1 0.2
v 0.2 1 0.1
v 0.3 0.4 0
v 0.3 0.4 -0.1
v 0.3 0.5 0
v 0.3 0.5 -0.1
v 0.4 0.3 0
v 0.4 0.3 -0.1
v 0.4 0.4 0
v 0.4 0.4 -0.1
v -0.4 0.3 0
v -0.4 0.3 -0.1
v -0.4 0.4 0
v -0.4 0.4 -0.1
v -0.3 0.4 0
v -0.3 0.4 -0.1
v -0.3 0.5 0
v -0.3 0.5 -0.1
v -0.2 0.7 0.2
v -0.2 0.7 0.1
v -0.2 0.8 0.1
v -0.2 0.9 0.1
v -0.2 1 0.2
v -0.2 1 0.1
v -0.1 0 0
v -0.1 0 -0.1
v -0.1 0.2 0
v -0.1 0.2 -0.1
v -0.1 0.3 0
v -0.1 0.3 -0.1
v -0.1 0.6 0.2
v -0.1 0.6 0.1
v -0.1 0.7 0.2
v -0.1 0.7 0.1
v 0 0.9 0.2
v 0 0.9 0.1
v 0 1 0.2
v 0 1 0.1
v 0.1 0.5 -0.4
v 0.1 0.5 -0.5
v 0.1 0.9 -0.4
v 0.1 0.9 -0.5
v 0.1 1.2 0.1
v 0.1 1.2 0
v 0.1 1.2 -0.1
v 0.1 1.2 -0.2
v 0.1 1.3 0.1
v 0.1 1.3 0
v 0.1 1.3 -0.1
v 0.1 1.3 -0.2
v 0.2 0 0
v 0.2 0 -0.1
v 0.2 0.2 0
v 0.2 0.2 -0.1
v 0.2 0.3 0
v 0.2 0.3 -0.1
v 0.2 0.4 0.1
v 0.2 0.4 0
v 0.2 0.4 -0.2
v 0.2 0.4 -0.3
v 0.2 0.4 -0.4
v 0.2 0.5 0.1
v 0.2 0.5 0
v 0.2 0.5 -0.1
v 0.2 0.5 -0.2
v 0.2 0.6 0.2
v 0.2 0.6 0.1
v 0.2 0.6 0
v 0.2 0.6 -0.1
v 0.2 0.6 -0.2
v 0.2 0.7 0.2
v 0.2 0.7 0.1
v 0.2 0.7 0
v 0.2 0.8 0.1
v 0.2 0.8 0
v 0.2 1.1 0.2
v 0.2 1.1 0.1
v 0.2 1.1 -0.2
v 0.2 1.1 -0.3
v 0.2 1.1 -0.4
v 0.2 1.2 0.2
v 0.2 1.2 0.1
v 0.2 1.2 0
v 0.2 1.2 -0.1
v 0.2 1.2 -0.2
v 0.2 1.2 -0.3
v 0.2 1.3 0
v 0.2 1.3 -0.1
v 0.3 0.3 0.2
v 0.3 0.3 -0.3
v 0.3 0.4 0.2
v 0.3 0.4 0
v 0.3 0.4 -0.1
v 0.3 0.4 -0.2
v 0.3 0.4 -0.3
v 0.3 0.5 0
v 0.3 0.5 -0.1
v 0.3 0.6 0.1
v 0.3 0.6 0
v 0.3 0.6 -0.1
v 0.3 0.6 -0.2
v 0.3 0.7 0.2
v 0.3 0.7 0.1
v 0.3 0.7 0
v 0.3 0.7 -0.1
v 0.3 0.8 0.1
v 0.3 0.8 0
v 0.3 1.1 0.2
v 0.3 1.1 0.1
v 0.3 1.1 -0.2
v 0.3 1.1 -0.3
v 0.3 1.2 0.1
v 0.3 1.2 0
v 0.3 1.2 -0.1
v 0.3 1.2 -0.2
v 0.4 0.4 0
v 0.4 0.4 -0.1
v 0.4 0.5 0
v 0.4 0.5 -0.1
v 0.5 0.3 0
v 0.5 0.3 -0.1
v 0.5 0.4 0
v 0.5 0.4 -0.1
v -0.3 0.3 0.2
v -0.3 0.4 0.2
v -0.3 0.7 0.2
v -0.3 1.1 0.2
v -0.2 0.3 0.2
v -0.2 0.4 0.2
v -0.2 0.6 0.2
v -0.2 0.7 0.2
v -0.2 1 0.2
v -0.2 1.1 0.2
v -0.2 1.2 0.2
v -0.1 0.3 0.2
v -0.1 0.4 0.2
v -0.1 0.6 0.2
v -0.1 0.7 0.2
v -0.1 0.9 0.2
v -0.1 1 0.2
v -0.1 1.1 0.2
v 0 0.9 0.2
v 0 1 0.2
v 0 1.1 0.2
v 0.1 0.3 0.2
v 0.1 0.4 0.2
v 0.1 0.6 0.2
v 0.1 0.7 0.2
v 0.2 0.3 0.2
v 0.2 0.4 0.2
v 0.2 0.6 0.2
v 0.2 0.7 0.2
v 0.2 1 0.2
v 0.2 1.1 0.2
v 0.2 1.2 0.2
v 0.3 0.3 0.2
v 0.3 0.4 0.2
v 0.3 0.7 0.2
v 0.3 1.1 0.2
v -0.3 0.5 0.1
v -0.3 0.7 0.1
v -0.3 1.1 0.1
v -0.3 1.2 0.1
v -0.2 0.4 0.1
v -0.2 0.5 0.1
v -0.2 0.6 0.1
v -0.2 0.7 0.1
v -0.2 0.8 0.1
v -0.2 0.9 0.1
v -0.2 1 0.1
v -0.2 1.1 0.1
v -0.2 1.2 0.1
v -0.1 0.4 0.1
v -0.1 0.5 0.1
v -0.1 0.6 0.1
v -0.1 0.7 0.1
v -0.1 0.8 0.1
v -0.1 0.9 0.1
v -0.1 1 0.1
v -0.1 1.2 0.1
v -0.1 1.3 0.1
v 0 0.5 0.1
v 0 0.7 0.1
v 0 0.9 0.1
v 0 1 0.1
v 0.1 0.4 0.1
v 0.1 0.5 0.1
v 0.1 0.6 0.1
v 0.1 0.7 0.1
v 0.1 0.8 0.1
v 0.1 0.9 0.1
v 0.1 1.2 0.1
v 0.1 1.3 0.1
v 0.2 0.4 0.1
v 0.2 0.5 0.1
v 0.2 0.6 0.1
v 0.2 0.7 0.1
v 0.2 0.8 0.1
v 0.2 0.9 0.1
v 0.2 1 0.1
v 0.2 1.1 0.1
v 0.2 1.2 0.1
v 0.3 0.6 0.1
v 0.3 0.7 0.1
v 0.3 1.1 0.1
v 0.3 1.2 0.1
v -0.5 0.3 0
v -0.5 0.4 0
v -0.4 0.3 0
v -0.4 0.4 0
v -0.4 0.5 0
v -0.3 0.4 0
v -0.3 0.5 0
v -0.3 0.7 0
v -0.3 0.8 0
v -0.2 0 0
v -0.2 0.2 0
v -0.2 0.3 0
v -0.2 0.7 0
v -0.2 0.8 0
v -0.2 1.2 0
v -0.2 1.3 0
v -0.1 0 0
v -0.1 0.2 0
v -0.1 0.3 0
v -0.1 1.2 0
v -0.1 1.3 0
v 0.1 0 0
v 0.1 0.2 0
v 0.1 0.3 0
v 0.1 1.2 0
v 0.1 1.3 0
v 0.2 0 0
v 0.2 0.2 0
v 0.2 0.3 0
v 0.2 0.5 0
v 0.2 0.6 0
v 0.2 0.7 0
v 0.2 0.8 0
v 0.2 1.2 0
v 0.2 1.3 0
v 0.3 0.4 0
v 0.3 0.5 0
v 0.3 0.6 0
v 0.3 0.7 0
v 0.3 0.8 0
v 0.4 0.3 0
v 0.4 0.4 0
v 0.4 0.5 0
v 0.5 0.3 0
v 0.5 0.4 0
v -0.3 0.4 -0.2
v -0.3 0.6 -0.2
v -0.2 0.4 -0.2
v -0.2 0.6 -0.2
v 0.2 0.4 -0.2
v 0.2 0.5 -0.2
v 0.2 0.6 -0.2
v 0.3 0.4 -0.2
v 0.3 0.6 -0.2
v -0.3 0.7 0.1
v -0.3 0.8 0.1
v -0.2 0.7 0.1
v -0.2 0.8 0.1
v 0.2 0.7 0.1
v 0.2 0.8 0.1
v 0.3 0.7 0.1
v 0.3 0.8 0.1
v -0.5 0.3 -0.1
v -0.5 0.4 -0.1
v -0.4 0.3 -0.1
v -0.4 0.4 -0.1
v -0.4 0.5 -0.1
v -0.3 0.4 -0.1
v -0.3 0.5 -0.1
v -0.3 0.6 -0.1
v -0.2 0 -0.1
v -0.2 0.2 -0.1
v -0.2 0.3 -0.1
v -0.2 0.5 -0.1
v -0.2 0.6 -0.1
v -0.2 1.2 -0.1
v -0.2 1.3 -0.1
v -0.1 0 -0.1
v -0.1 0.2 -0.1
v -0.1 0.3 -0.1
v -0.1 1.2 -0.1
v -0.1 1.3 -0.1
v 0.1 0 -0.1
v 0.1 0.2 -0.1
v 0.1 0.3 -0.1
v 0.1 1.2 -0.1
v 0.1 1.3 -0.1
v 0.2 0 -0.1
v 0.2 0.2 -0.1
v 0.2 0.3 -0.1
v 0.2 0.5 -0.1
v 0.2 0.6 -0.1
v 0.2 1.2 -0.1
v 0.2 1.3 -0.1
v 0.3 0.4 -0.1
v 0.3 0.5 -0.1
v 0.3 0.6 -0.1
v 0.4 0.3 -0.1
v 0.4 0.4 -0.1
v 0.4 0.5 -0.1
v 0.5 0.3 -0.1
v 0.5 0.4 -0.1
v -0.3 1.1 -0.2
v -0.3 1.2 -0.2
v -0.2 1.1 -0.2
v -0.2 1.2 -0.2
v -0.1 1.2 -0.2
v -0.1 1.3 -0.2
v 0.1 1.2 -0.2
v 0.1 1.3 -0.2
v 0.2 1.1 -0.2
v 0.2 1.2 -0.2
v 0.3 1.1 -0.2
v 0.3 1.2 -0.2
v -0.3 0.3 -0.3
v -0.3 0.4 -0.3
v -0.3 1.1 -0.3
v -0.2 0.3 -0.3
v -0.2 0.4 -0.3
v -0.2 1.1 -0.3
v -0.2 1.2 -0.3
v -0.1 0.3 -0.3
v -0.1 0.4 -0.3
v -0.1 1.1 -0.3
v 0.1 0.3 -0.3
v 0.1 0.4 -0.3
v 0.2 0.3 -0.3
v 0.2 0.4 -0.3
v 0.2 1.1 -0.3
v 0.2 1.2 -0.3
v 0.3 0.3 -0.3
v 0.3 0.4 -0.3
v 0.3 1.1 -0.3
v -0.2 0.4 -0.4
v -0.2 1.1 -0.4
v -0.1 0.4 -0.4
v -0.1 0.5 -0.4
v -0.1 0.9 -0.4
v -0.1 1.1 -0.4
v 0.1 0.5 -0.4
v 0.1 0.9 -0.4
v 0.2 0.4 -0.4
v 0.2 1.1 -0.4
v -0.1 0.5 -0.5
v -0.1 0.9 -0.5
v 0.1 0.5 -0.5
v 0.1 0.9 -0.5
v -0.2 0 0
v -0.1 0 0
v 0.1 0 0
v 0.2 0 0
v -0.2 0 -0.1
v -0.1 0 -0.1
v 0.1 0 -0.1
v 0.2 0 -0.1
v -0.3 0.3 0.2
v -0.2 0.3 0.2
v -0.1 0.3 0.2
v 0.1 0.3 0.2
v 0.2 0.3 0.2
v 0.3 0.3 0.2
v 0.1 0.3 0.1
v 0.2 0.3 0.1
v -0.5 0.3 0
v -0.4 0.3 0
v -0.2 0.3 0
v -0.1 0.3 0
v 0.1 0.3 0
v 0.2 0.3 0
v 0.4 0.3 0
v 0.5 0.3 0
v -0.5 0.3 -0.1
v -0.4 0.3 -0.1
v -0.2 0.3 -0.1
v -0.1 0.3 -0.1
v 0 0.3 -0.1
v 0.1 0.3 -0.1
v 0.2 0.3 -0.1
v 0.4 0.3 -0.1
v 0.5 0.3 -0.1
v -0.2 0.3 -0.2
v -0.1 0.3 -0.2
v 0 0.3 -0.2
v 0.1 0.3 -0.2
v 0.2 0.3 -0.2
v -0.3 0.3 -0.3
v -0.2 0.3 -0.3
v -0.1 0.3 -0.3
v 0.1 0.3 -0.3
v 0.2 0.3 -0.3
v 0.3 0.3 -0.3
v -0.4 0.4 0
v -0.3 0.4 0
v 0.3 0.4 0
v 0.4 0.4 0
v -0.4 0.4 -0.1
v -0.3 0.4 -0.1
v 0.3 0.4 -0.1
v 0.4 0.4 -0.1
v -0.2 0.4 -0.3
v -0.1 0.4 -0.3
v 0.1 0.4 -0.3
v 0.2 0.4 -0.3
v -0.2 0.4 -0.4
v -0.1 0.4 -0.4
v 0.2 0.4 -0.4
v -0.3 0.5 0.1
v -0.2 0.5 0.1
v -0.3 0.5 0
v -0.2 0.5 0
v 0.2 0.5 0
v 0.3 0.5 0
v -0.3 0.5 -0.1
v -0.2 0.5 -0.1
v 0.2 0.5 -0.1
v 0.3 0.5 -0.1
v -0.1 0.5 -0.4
v 0.1 0.5 -0.4
v -0.1 0.5 -0.5
v 0.1 0.5 -0.5
v -0.2 0.6 0.2
v -0.1 0.6 0.2
v 0.1 0.6 0.2
v 0.2 0.6 0.2
v -0.2 0.6 0.1
v -0.1 0.6 0.1
v 0.1 0.6 0.1
v 0.2 0.6 0.1
v 0.3 0.6 0.1
v 0.2 0.6 0
v 0.3 0.6 0
v -0.3 0.6 -0.1
v -0.2 0.6 -0.1
v 0.2 0.6 -0.1
v 0.3 0.6 -0.1
v -0.3 0.6 -0.2
v -0.2 0.6 -0.2
v 0.2 0.6 -0.2
v 0.3 0.6 -0.2
v -0.3 0.7 0.2
v -0.2 0.7 0.2
v 0.2 0.7 0.2
v 0.3 0.7 0.2
v -0.3 0.7 0.1
v -0.2 0.7 0.1
v 0.2 0.7 0.1
v 0.3 0.7 0.1
v -0.3 0.8 0.1
v -0.2 0.8 0.1
v 0.2 0.8 0.1
v 0.3 0.8 0.1
v -0.3 0.8 0
v -0.2 0.8 0
v 0.2 0.8 0
v 0.3 0.8 0
v -0.1 0.9 0.2
v 0 0.9 0.2
v -0.1 0.9 0.1
v 0 0.9 0.1
v -0.2 1 0.2
v -0.1 1 0.2
v 0 1 0.2
v 0.2 1 0.2
v -0.2 1 0.1
v -0.1 1 0.1
v 0 1 0.1
v 0.2 1 0.1
v -0.3 0.4 0.2
v -0.2 0.4 0.2
v -0.1 0.4 0.2
v 0.1 0.4 0.2
v 0.2 0.4 0.2
v 0.3 0.4 0.2
v -0.2 0.4 0.1
v -0.1 0.4 0.1
v 0.1 0.4 0.1
v 0.2 0.4 0.1
v -0.5 0.4 0
v -0.4 0.4 0
v -0.3 0.4 0
v 0.2 0.4 0
v 0.3 0.4 0
v 0.4 0.4 0
v 0.5 0.4 0
v -0.5 0.4 -0.1
v -0.4 0.4 -0.1
v -0.3 0.4 -0.1
v -0.2 0.4 -0.1
v 0.3 0.4 -0.1
v 0.4 0.4 -0.1
v 0.5 0.4 -0.1
v -0.3 0.4 -0.2
v -0.2 0.4 -0.2
v 0.2 0.4 -0.2
v 0.3 0.4 -0.2
v -0.4 0.5 0
v -0.3 0.5 0
v 0.3 0.5 0
v 0.4 0.5 0
v -0.4 0.5 -0.1
v -0.3 0.5 -0.1
v 0.3 0.5 -0.1
v 0.4 0.5 -0.1
v -0.2 0.7 0.2
v -0.1 0.7 0.2
v 0.1 0.7 0.2
v 0.2 0.7 0.2
v -0.3 0.7 0.1
v -0.2 0.7 0.1
v -0.1 0.7 0.1
v 0.1 0.7 0.1
v 0.2 0.7 0.1
v 0.3 0.7 0.1
v -0.3 0.7 0
v -0.2 0.7 0
v 0.2 0.7 0
v 0.3 0.7 0
v -0.1 0.9 -0.4
v 0.1 0.9 -0.4
v -0.1 0.9 -0.5
v 0.1 0.9 -0.5
v -0.3 1.1 0.2
v -0.2 1.1 0.2
v 0.2 1.1 0.2
v 0.3 1.1 0.2
v -0.3 1.1 0.1
v -0.2 1.1 0.1
v 0.2 1.1 0.1
v 0.3 1.1 0.1
v -0.3 1.1 -0.2
v -0.2 1.1 -0.2
v 0.2 1.1 -0.2
v 0.3 1.1 -0.2
v -0.3 1.1 -0.3
v -0.2 1.1 -0.3
v -0.1 1.1 -0.3
v 0.2 1.1 -0.3
v 0.3 1.1 -0.3
v -0.2 1.1 -0.4
v -0.1 1.1 -0.4
v 0.2 1.1 -0.4
v -0.2 1.2 0.2
v 0.2 1.2 0.2
v -0.3 1.2 0.1
v -0.2 1.2 0.1
v -0.1 1.2 0.1
v 0.1 1.2 0.1
v 0.2 1.2 0.1
v 0.3 1.2 0.1
v -0.2 1.2 0
v -0.1 1.2 0
v 0.1 1.2 0
v 0.2 1.2 0
v 0.3 1.2 0
v -0.2 1.2 -0.1
v -0.1 1.2 -0.1
v 0.1 1.2 -0.1
v 0.2 1.2 -0.1
v 0.3 1.2 -0.1
v -0.3 1.2 -0.2
v -0.2 1.2 -0.2
v -0.1 1.2 -0.2
v 0.1 1.2 -0.2
v 0.2 1.2 -0.2
v 0.3 1.2 -0.2
v -0.2 1.2 -0.3
v 0.2 1.2 -0.3
v -0.1 1.3 0.1
v 0.1 1.3 0.1
v -0.2 1.3 0
v -0.1 1.3 0
v 0.1 1.3 0
v 0.2 1.3 0
v -0.2 1.3 -0.1
v -0.1 1.3 -0.1
v 0.1 1.3 -0.1
v 0.2 1.3 -0.1
v -0.1 1.3 -0.2
v 0.1 1.3 -0.2

# faces
f 3/1/1 2/1/1 1/1/1
f 4/1/1 2/1/1 3/1/1
f 7/1/1 6/1/1 5/1/1
f 8/1/1 6/1/1 7/1/1
f 11/5/1 10/5/1 9/5/1
f 12/5/1 10/5/1 11/5/1
f 13/5/1 10/5/1 12/5/1
f 14/5/1 10/5/1 13/5/1
f 15/5/1 10/5/1 14/5/1
f 19/12/1 17/12/1 16/12/1
f 19/1/1 18/1/1 17/1/1
f 20/1/1 18/1/1 19/1/1
f 21/12/1 15/12/1 14/12/1
f 23/12/1 19/12/1 16/12/1
f 24/5/1 20/5/1 19/5/1
f 24/12/1 19/12/1 23/12/1
f 25/12/1 21/12/1 20/12/1
f 25/5/1 20/5/1 24/5/1
f 26/12/1 23/12/1 22/12/1
f 27/12/1 25/12/1 24/12/1
f 28/12/1 26/12/1 22/12/1
f 28/12/1 27/12/1 26/12/1
f 29/12/1 27/12/1 28/12/1
f 30/12/1 21/12/1 25/12/1
f 30/12/1 27/12/1 29/12/1
f 30/12/1 25/12/1 27/12/1
f 30/12/1 15/12/1 21/12/1
f 31/12/1 15/12/1 30/12/1
f 32/12/1 30/12/1 29/12/1
f 33/12/1 30/12/1 32/12/1
f 36/11/1 35/11/1 34/11/1
f 37/11/1 35/11/1 36/11/1
f 38/1/1 37/1/1 36/1/1
f 39/1/1 37/1/1 38/1/1
f 45/4/1 41/4/1 40/4/1
f 46/4/1 41/4/1 45/4/1
f 47/5/1 42/5/1 41/5/1
f 47/4/1 41/4/1 46/4/1
f 50/5/1 42/5/1 47/5/1
f 51/5/1 42/5/1 50/5/1
f 52/12/1 49/12/1 48/12/1
f 53/12/1 49/12/1 52/12/1
f 55/3/1 54/3/1 53/3/1
f 56/3/1 54/3/1 55/3/1
f 60/7/1 44/7/1 43/7/1
f 61/7/1 44/7/1 60/7/1
f 62/12/1 58/12/1 57/12/1
f 63/12/1 58/12/1 62/12/1
f 66/12/1 60/12/1 59/12/1
f 67/12/1 60/12/1 66/12/1
f 68/12/1 65/12/1 64/12/1
f 69/12/1 65/12/1 68/12/1
f 74/12/1 71/12/1 70/12/1
f 75/12/1 71/12/1 74/12/1
f 76/12/1 73/12/1 72/12/1
f 77/12/1 73/12/1 76/12/1
f 82/12/1 79/12/1 78/12/1
f 83/12/1 79/12/1 82/12/1
f 84/12/1 81/12/1 80/12/1
f 85/12/1 81/12/1 84/12/1
f 88/11/1 87/11/1 86/11/1
f 89/11/1 87/11/1 88/11/1
f 90/1/1 89/1/1 88/1/1
f 91/1/1 89/1/1 90/1/1
f 94/12/1 93/12/1 92/12/1
f 95/12/1 93/12/1 94/12/1
f 98/12/1 97/12/1 96/12/1
f 99/12/1 98/12/1 96/12/1
f 100/12/1 99/12/1 96/12/1
f 101/12/1 99/12/1 100/12/1
f 104/1/1 103/1/1 102/1/1
f 105/1/1 103/1/1 104/1/1
f 108/1/1 107/1/1 106/1/1
f 109/1/1 107/1/1 108/1/1
f 110/1/2 111/1/2 112/1/2
f 112/1/2 111/1/2 113/1/2
f 114/1/2 115/1/2 116/1/2
f 116/1/2 115/1/2 117/1/2
f 118/12/2 119/12/2 120/12/2
f 118/12/2 120/12/2 121/12/2
f 118/12/2 121/12/2 122/12/2
f 122/12/2 121/12/2 123/12/2
f 124/11/2 125/11/2 126/11/2
f 126/11/2 125/11/2 127/11/2
f 126/1/2 127/1/2 128/1/2
f 128/1/2 127/1/2 129/1/2
f 130/12/2 131/12/2 132/12/2
f 132/12/2 131/12/2 133/12/2
f 134/12/2 135/12/2 136/12/2
f 136/12/2 135/12/2 137/12/2
f 138/12/2 139/12/2 140/12/2
f 140/12/2 139/12/2 141/12/2
f 142/12/2 143/12/2 146/12/2
f 146/12/2 143/12/2 147/12/2
f 144/12/2 145/12/2 148/12/2
f 148/12/2 145/12/2 149/12/2
f 150/11/2 151/11/2 152/11/2
f 152/11/2 151/11/2 153/11/2
f 152/1/2 153/1/2 154/1/2
f 154/1/2 153/1/2 155/1/2
f 156/4/2 157/4/2 161/4/2
f 157/5/2 158/5/2 162/5/2
f 161/4/2 157/4/2 162/4/2
f 162/5/2 158/5/2 163/5/2
f 163/5/2 158/5/2 164/5/2
f 161/5/2 162/5/2 166/5/2
f 166/5/2 162/5/2 167/5/2
f 163/4/2 164/4/2 168/4/2
f 168/4/2 164/4/2 169/4/2
f 165/12/2 166/12/2 170/12/2
f 170/12/2 166/12/2 171/12/2
f 171/3/2 172/3/2 173/3/2
f 173/3/2 172/3/2 174/3/2
f 159/12/2 160/12/2 178/12/2
f 178/12/2 160/12/2 179/12/2
f 175/12/2 176/12/2 180/12/2
f 180/12/2 176/12/2 181/12/2
f 177/12/2 178/12/2 184/12/2
f 184/12/2 178/12/2 185/12/2
f 182/12/2 183/12/2 186/12/2
f 186/12/2 183/12/2 187/12/2
f 188/5/2 189/5/2 190/5/2
f 190/5/2 189/5/2 191/5/2
f 191/5/2 189/5/2 192/5/2
f 192/5/2 189/5/2 193/5/2
f 193/5/2 189/5/2 194/5/2
f 195/1/2 196/1/2 198/1/2
f 198/1/2 196/1/2 199/1/2
f 193/12/2 194/12/2 200/12/2
f 197/12/2 198/12/2 202/12/2
f 198/5/2 199/5/2 203/5/2
f 202/12/2 198/12/2 203/12/2
f 199/12/2 200/12/2 204/12/2
f 203/5/2 199/5/2 204/5/2
f 201/12/2 202/12/2 205/12/2
f 203/7/2 204/7/2 206/7/2
f 201/12/2 205/12/2 207/12/2
f 205/12/2 206/12/2 207/12/2
f 207/12/2 206/12/2 208/12/2
f 204/12/2 200/12/2 209/12/2
f 200/12/2 194/12/2 209/12/2
f 209/12/2 194/12/2 210/12/2
f 208/12/2 206/12/2 211/12/2
f 206/7/2 204/7/2 212/7/2
f 211/12/2 206/12/2 212/12/2
f 204/12/2 209/12/2 213/12/2
f 212/7/2 204/7/2 213/7/2
f 213/12/2 209/12/2 214/12/2
f 215/1/2 216/1/2 217/1/2
f 217/1/2 216/1/2 218/1/2
f 219/1/2 220/1/2 221/1/2
f 221/1/2 220/1/2 222/1/2
f 227/5/3 224/5/3 223/5/3
f 228/5/3 224/5/3 227/5/3
f 230/12/3 226/12/3 225/12/3
f 231/12/3 226/12/3 230/12/3
f 232/12/3 226/12/3 231/12/3
f 234/4/3 228/4/3 227/4/3
f 235/4/3 228/4/3 234/4/3
f 236/12/3 230/12/3 229/12/3
f 237/12/3 230/12/3 236/12/3
f 239/7/3 232/7/3 231/7/3
f 240/12/3 233/12/3 232/12/3
f 240/7/3 232/7/3 239/7/3
f 241/12/3 239/12/3 238/12/3
f 241/12/3 240/12/3 239/12/3
f 242/12/3 240/12/3 241/12/3
f 243/12/3 233/12/3 240/12/3
f 243/12/3 240/12/3 242/12/3
f 244/5/3 235/5/3 234/5/3
f 245/5/3 235/5/3 244/5/3
f 248/4/3 245/4/3 244/4/3
f 249/4/3 245/4/3 248/4/3
f 250/12/3 247/12/3 246/12/3
f 251/12/3 247/12/3 250/12/3
f 252/7/3 243/7/3 242/7/3
f 253/12/3 233/12/3 243/12/3
f 253/7/3 243/7/3 252/7/3
f 254/12/3 233/12/3 253/12/3
f 255/5/3 249/5/3 248/5/3
f 256/5/3 249/5/3 255/5/3
f 257/12/3 252/12/3 251/12/3
f 257/12/3 253/12/3 252/12/3
f 258/12/3 253/12/3 257/12/3
f 264/12/3 260/12/3 259/12/3
f 265/12/3 260/12/3 264/12/3
f 266/12/3 260/12/3 265/12/3
f 270/12/3 262/12/3 261/12/3
f 271/12/3 262/12/3 270/12/3
f 272/4/3 264/4/3 263/4/3
f 273/5/3 265/5/3 264/5/3
f 273/4/3 264/4/3 272/4/3
f 274/5/3 265/5/3 273/5/3
f 275/3/3 267/3/3 266/3/3
f 276/9/3 268/9/3 267/9/3
f 276/3/3 267/3/3 275/3/3
f 277/7/3 269/7/3 268/7/3
f 277/9/3 268/9/3 276/9/3
f 278/7/3 269/7/3 277/7/3
f 281/4/3 274/4/3 273/4/3
f 281/4/3 275/4/3 274/4/3
f 281/5/3 273/5/3 272/5/3
f 282/1/3 276/1/3 275/1/3
f 282/4/3 275/4/3 281/4/3
f 282/1/3 277/1/3 276/1/3
f 283/1/3 277/1/3 282/1/3
f 285/5/3 281/5/3 272/5/3
f 285/5/3 282/5/3 281/5/3
f 286/5/3 282/5/3 285/5/3
f 287/5/3 282/5/3 286/5/3
f 288/1/3 283/1/3 282/1/3
f 288/5/3 282/5/3 287/5/3
f 289/1/3 283/1/3 288/1/3
f 290/7/3 284/7/3 283/7/3
f 290/1/3 283/1/3 289/1/3
f 291/12/3 280/12/3 279/12/3
f 292/12/3 280/12/3 291/12/3
f 293/4/3 286/4/3 285/4/3
f 294/5/3 287/5/3 286/5/3
f 294/4/3 286/4/3 293/4/3
f 295/5/3 287/5/3 294/5/3
f 296/3/3 289/3/3 288/3/3
f 297/9/3 290/9/3 289/9/3
f 297/3/3 289/3/3 296/3/3
f 298/7/3 284/7/3 290/7/3
f 298/9/3 290/9/3 297/9/3
f 299/7/3 284/7/3 298/7/3
f 302/12/3 296/12/3 295/12/3
f 303/12/3 296/12/3 302/12/3
f 304/12/3 301/12/3 300/12/3
f 305/12/3 301/12/3 304/12/3
f 308/1/3 307/1/3 306/1/3
f 309/1/3 307/1/3 308/1/3
f 311/1/3 310/1/3 309/1/3
f 312/1/3 310/1/3 311/1/3
f 318/12/3 314/12/3 313/12/3
f 319/12/3 314/12/3 318/12/3
f 322/11/3 316/11/3 315/11/3
f 323/1/3 317/1/3 316/1/3
f 323/11/3 316/11/3 322/11/3
f 324/1/3 317/1/3 323/1/3
f 325/12/3 321/12/3 320/12/3
f 326/12/3 321/12/3 325/12/3
f 332/11/3 328/11/3 327/11/3
f 333/1/3 329/1/3 328/1/3
f 333/11/3 328/11/3 332/11/3
f 334/1/3 329/1/3 333/1/3
f 339/12/3 331/12/3 330/12/3
f 340/12/3 331/12/3 339/12/3
f 342/1/3 336/1/3 335/1/3
f 343/1/3 336/1/3 342/1/3
f 344/7/3 338/7/3 337/7/3
f 345/7/3 338/7/3 344/7/3
f 347/1/3 342/1/3 341/1/3
f 348/1/3 342/1/3 347/1/3
f 349/1/3 347/1/3 346/1/3
f 350/1/3 347/1/3 349/1/3
f 353/12/3 352/12/3 351/12/3
f 354/12/3 352/12/3 353/12/3
f 358/12/3 356/12/3 355/12/3
f 358/12/3 357/12/3 356/12/3
f 359/12/3 357/12/3 358/12/3
f 360/12/4 361/12/4 362/12/4
f 362/12/4 361/12/4 363/12/4
f 364/12/4 365/12/4 366/12/4
f 366/12/4 365/12/4 367/12/4
f 368/1/4 369/1/4 370/1/4
f 370/1/4 369/1/4 371/1/4
f 371/1/4 372/1/4 373/1/4
f 373/1/4 372/1/4 374/1/4
f 374/1/4 375/1/4 379/1/4
f 379/1/4 375/1/4 380/1/4
f 376/11/4 377/11/4 383/11/4
f 377/1/4 378/1/4 384/1/4
f 383/11/4 377/11/4 384/11/4
f 384/1/4 378/1/4 385/1/4
f 381/12/4 382/12/4 386/12/4
f 386/12/4 382/12/4 387/12/4
f 388/11/4 389/11/4 393/11/4
f 389/1/4 390/1/4 394/1/4
f 393/11/4 389/11/4 394/11/4
f 394/1/4 390/1/4 395/1/4
f 391/12/4 392/12/4 398/12/4
f 398/12/4 392/12/4 399/12/4
f 396/1/4 397/1/4 401/1/4
f 401/1/4 397/1/4 402/1/4
f 400/1/4 401/1/4 404/1/4
f 404/1/4 401/1/4 405/1/4
f 403/1/4 404/1/4 406/1/4
f 406/1/4 404/1/4 407/1/4
f 408/12/4 409/12/4 410/12/4
f 410/12/4 409/12/4 411/12/4
f 412/12/4 413/12/4 414/12/4
f 414/12/4 413/12/4 415/12/4
f 416/12/4 417/12/4 418/12/4
f 418/12/4 417/12/4 419/12/4
f 420/5/4 421/5/4 423/5/4
f 421/12/4 422/12/4 424/12/4
f 423/5/4 421/5/4 424/5/4
f 424/12/4 422/12/4 425/12/4
f 423/4/4 424/4/4 427/4/4
f 427/4/4 424/4/4 428/4/4
f 425/12/4 426/12/4 429/12/4
f 427/5/4 428/5/4 430/5/4
f 430/5/4 428/5/4 431/5/4
f 430/4/4 431/4/4 432/4/4
f 432/4/4 431/4/4 433/4/4
f 429/12/4 426/12/4 434/12/4
f 434/12/4 426/12/4 435/12/4
f 432/5/4 433/5/4 436/5/4
f 433/12/4 434/12/4 437/12/4
f 436/5/4 433/5/4 437/5/4
f 437/12/4 434/12/4 438/12/4
f 439/7/4 440/7/4 441/7/4
f 441/7/4 440/7/4 442/7/4
f 442/7/4 440/7/4 443/7/4
f 443/7/4 440/7/4 444/7/4
f 441/12/4 442/12/4 445/12/4
f 443/12/4 444/12/4 446/12/4
f 441/12/4 445/12/4 447/12/4
f 445/12/4 446/12/4 447/12/4
f 446/12/4 444/12/4 448/12/4
f 447/12/4 446/12/4 448/12/4
f 449/12/4 450/12/4 451/12/4
f 451/12/4 450/12/4 452/12/4
f 457/11/5 454/11/5 453/11/5
f 458/11/5 454/11/5 457/11/5
f 459/11/5 456/11/5 455/11/5
f 460/11/5 456/11/5 459/11/5
f 467/5/5 464/5/5 463/5/5
f 467/4/5 465/4/5 464/4/5
f 468/5/5 466/5/5 465/5/5
f 468/4/5 465/4/5 467/4/5
f 471/5/5 462/5/5 461/5/5
f 471/4/5 463/4/5 462/4/5
f 472/5/5 467/5/5 463/5/5
f 472/4/5 463/4/5 471/4/5
f 472/5/5 468/5/5 467/5/5
f 473/5/5 468/5/5 472/5/5
f 474/5/5 466/5/5 468/5/5
f 474/5/5 468/5/5 473/5/5
f 477/1/5 470/1/5 469/1/5
f 478/1/5 470/1/5 477/1/5
f 479/5/5 471/5/5 461/5/5
f 480/5/5 473/5/5 472/5/5
f 481/5/5 473/5/5 480/5/5
f 482/5/5 473/5/5 481/5/5
f 483/5/5 466/5/5 474/5/5
f 484/1/5 476/1/5 475/1/5
f 485/1/5 476/1/5 484/1/5
f 486/5/5 479/5/5 461/5/5
f 486/5/5 480/5/5 479/5/5
f 486/5/5 481/5/5 480/5/5
f 487/5/5 481/5/5 486/5/5
f 488/4/5 482/4/5 481/4/5
f 488/5/5 481/5/5 487/5/5
f 489/5/5 483/5/5 482/5/5
f 489/4/5 482/4/5 488/4/5
f 490/5/5 466/5/5 483/5/5
f 490/5/5 483/5/5 489/5/5
f 491/5/5 486/5/5 461/5/5
f 492/4/5 487/4/5 486/4/5
f 492/5/5 486/5/5 491/5/5
f 493/5/5 488/5/5 487/5/5
f 493/4/5 487/4/5 492/4/5
f 493/5/5 489/5/5 488/5/5
f 494/4/5 490/4/5 489/4/5
f 494/5/5 489/5/5 493/5/5
f 495/5/5 466/5/5 490/5/5
f 495/4/5 490/4/5 494/4/5
f 496/5/5 466/5/5 495/5/5
f 501/1/5 498/1/5 497/1/5
f 502/1/5 498/1/5 501/1/5
f 503/1/5 500/1/5 499/1/5
f 504/1/5 500/1/5 503/1/5
f 509/7/5 506/7/5 505/7/5
f 510/12/5 508/12/5 507/12/5
f 510/7/5 506/7/5 509/7/5
f 510/12/5 507/12/5 506/12/5
f 511/12/5 508/12/5 510/12/5
f 514/12/5 513/12/5 512/12/5
f 515/12/5 513/12/5 514/12/5
f 518/1/5 515/1/5 514/1/5
f 519/1/5 515/1/5 518/1/5
f 520/1/5 517/1/5 516/1/5
f 521/1/5 517/1/5 520/1/5
f 524/12/5 523/12/5 522/12/5
f 525/12/5 523/12/5 524/12/5
f 530/12/5 527/12/5 526/12/5
f 531/12/5 527/12/5 530/12/5
f 532/12/5 529/12/5 528/12/5
f 533/12/5 529/12/5 532/12/5
f 535/12/5 534/12/5 533/12/5
f 536/12/5 534/12/5 535/12/5
f 541/12/5 538/12/5 537/12/5
f 542/12/5 538/12/5 541/12/5
f 543/12/5 540/12/5 539/12/5
f 544/12/5 540/12/5 543/12/5
f 549/12/5 546/12/5 545/12/5
f 550/12/5 546/12/5 549/12/5
f 551/12/5 548/12/5 547/12/5
f 552/12/5 548/12/5 551/12/5
f 557/12/5 554/12/5 553/12/5
f 558/12/5 554/12/5 557/12/5
f 559/12/5 556/12/5 555/12/5
f 560/12/5 556/12/5 559/12/5
f 563/12/5 562/12/5 561/12/5
f 564/12/5 562/12/5 563/12/5
f 569/7/5 566/7/5 565/7/5
f 570/7/5 566/7/5 569/7/5
f 571/7/5 568/7/5 567/7/5
f 572/7/5 568/7/5 571/7/5
f 573/5/6 574/5/6 579/5/6
f 574/4/6 575/4/6 579/4/6
f 575/5/6 576/5/6 580/5/6
f 579/4/6 575/4/6 580/4/6
f 576/4/6 577/4/6 581/4/6
f 580/5/6 576/5/6 581/5/6
f 577/5/6 578/5/6 582/5/6
f 581/4/6 577/4/6 582/4/6
f 573/5/6 579/5/6 585/5/6
f 582/5/6 578/5/6 586/5/6
f 586/5/6 578/5/6 587/5/6
f 583/1/6 584/1/6 590/1/6
f 590/1/6 584/1/6 591/1/6
f 585/5/6 579/5/6 592/5/6
f 592/5/6 579/5/6 593/5/6
f 586/5/6 587/5/6 594/5/6
f 588/1/6 589/1/6 595/1/6
f 595/1/6 589/1/6 596/1/6
f 592/5/6 593/5/6 597/5/6
f 597/5/6 593/5/6 598/5/6
f 586/5/6 594/5/6 599/5/6
f 599/5/6 594/5/6 600/5/6
f 601/1/6 602/1/6 605/1/6
f 605/1/6 602/1/6 606/1/6
f 603/1/6 604/1/6 607/1/6
f 607/1/6 604/1/6 608/1/6
f 609/12/6 610/12/6 614/12/6
f 614/12/6 610/12/6 615/12/6
f 611/12/6 612/12/6 616/12/6
f 616/12/6 612/12/6 617/12/6
f 613/12/6 614/12/6 619/12/6
f 619/12/6 614/12/6 620/12/6
f 617/12/6 618/12/6 621/12/6
f 621/12/6 618/12/6 622/12/6
f 623/12/6 624/12/6 625/12/6
f 625/12/6 624/12/6 626/12/6
f 627/12/6 628/12/6 631/12/6
f 631/12/6 628/12/6 632/12/6
f 629/12/6 630/12/6 633/12/6
f 633/12/6 630/12/6 634/12/6
f 635/12/6 636/12/6 639/12/6
f 639/12/6 636/12/6 640/12/6
f 637/12/6 638/12/6 642/12/6
f 642/12/6 638/12/6 643/12/6
f 640/7/6 641/7/6 644/7/6
f 641/12/6 642/12/6 645/12/6
f 644/7/6 641/7/6 645/7/6
f 645/12/6 642/12/6 646/12/6
f 647/12/6 648/12/6 650/12/6
f 650/12/6 648/12/6 651/12/6
f 651/12/6 648/12/6 652/12/6
f 652/12/6 648/12/6 653/12/6
f 649/12/6 650/12/6 655/12/6
f 650/12/6 651/12/6 655/12/6
f 655/12/6 651/12/6 656/12/6
f 653/12/6 654/12/6 657/12/6
f 652/12/6 653/12/6 657/12/6
f 657/12/6 654/12/6 658/12/6
f 658/12/6 654/12/6 659/12/6
f 649/12/6 655/12/6 660/12/6
f 658/7/6 659/7/6 663/7/6
f 663/7/6 659/7/6 664/7/6
f 660/12/6 661/12/6 665/12/6
f 649/12/6 660/12/6 665/12/6
f 665/12/6 661/12/6 666/12/6
f 666/12/6 661/12/6 667/12/6
f 663/12/6 664/12/6 668/12/6
f 662/12/6 663/12/6 668/12/6
f 668/12/6 664/12/6 669/12/6
f 669/12/6 664/12/6 670/12/6
f 666/12/6 667/12/6 671/12/6
f 668/12/6 669/12/6 671/12/6
f 667/12/6 668/12/6 671/12/6
f 671/12/6 669/12/6 672/12/6
f 673/12/6 674/12/6 676/12/6
f 676/12/6 674/12/6 677/12/6
f 675/12/6 676/12/6 679/12/6
f 677/12/6 678/12/6 679/12/6
f 676/12/6 677/12/6 679/12/6
f 679/12/6 678/12/6 680/12/6
f 680/12/6 678/12/6 681/12/6
f 681/12/6 678/12/6 682/12/6
f 680/12/6 681/12/6 683/12/6
f 683/12/6 681/12/6 684/12/6
